<?xml version="1.0" encoding="utf-8"?>
<!-- Generator: Adobe Illustrator 26.0.1, SVG Export Plug-In . SVG Version: 6.00 Build 0)  -->
<svg version="1.1" id="Layer_1" xmlns="http://www.w3.org/2000/svg" xmlns:xlink="http://www.w3.org/1999/xlink" x="0px" y="0px"
	 viewBox="0 0 300 76.2" style="enable-background:new 0 0 300 76.2;" xml:space="preserve">
<style type="text/css">
	.st0{fill:#110E0E;}
	.st1{fill:#ECCC68;}
	.st2{fill:#F9F9F8;}
</style>
<g>
	<g>
		<path class="st0" d="M46,8.1C59.6,9,70.2,14.7,76,27.7c0.2,0.6,0.6,0.8,1.2,1c1.1,0.4,2.2,0.9,3.3,1.3c3.1,1.2,5.1,3.4,6.2,6.6
			c1.8,5.3,2.3,10.6,0.4,16c-0.6,1.7-1.7,2.5-3.2,2.8c-1.9,0.4-2.9,1.4-3.8,3.2c-2.9,5.9-7.8,9.1-14.5,9.4c-6.5,0.2-11.5-2.6-15-8
			c-0.4-0.7-0.9-0.9-1.6-0.9c-2.1,0-4.2,0-6.3,0c-0.7,0-1,0.2-1.4,0.8c-3.9,5.9-9.4,8.8-16.4,8c-6.8-0.8-11.4-4.7-13.9-11
			c-0.2-0.5-0.4-0.8-0.9-0.8c-0.1,0-0.2-0.1-0.3-0.1c-4.7-1.4-4.6-1-5.7-6c-1.3-5.5-0.3-10.9,2.3-15.9c1-2,2.8-3.1,4.7-4
			c1.2-0.6,2.4-1.1,3.6-1.5c0.7-0.2,1-0.6,1.3-1.2c4.3-9.7,11.6-15.7,21.8-18.3C40.4,8.5,43.1,8.1,46,8.1z M10,52.4
			c0-0.9-0.1-1.8,0-2.7C11.1,40.2,19.4,34,28,34.5c7,0.5,13.4,5.5,15.2,12.3c0.7,2.7,0.8,5.4,0.2,8.1c-0.1,0.3-0.5,0.9,0.4,0.9
			c1.6,0,3.2,0,4.9,0c-0.7-2.8-0.8-5.4-0.2-8.2C50,41,55.3,35.9,62.1,34.7c6.6-1.2,13.4,1.9,17,7.6c1.8,2.8,2.7,5.9,2.7,9.3
			c0,0.3-0.3,1.1,0.4,0.8c0.8-0.3,1.5-0.6,1.8-1.7c1.2-4.7,0.7-9.1-1-13.6c-0.6-1.6-1.7-2.8-3.2-3.5c-1.5-0.7-3.1-1.5-4.8-1.9
			c-1.1-0.3-1.6-0.8-1.9-1.8c-4.7-11.7-13.8-17.4-26-18.3c-6.8-0.5-13.2,1.7-18.8,5.6c-4.7,3.3-7.8,7.8-9.8,13.1
			c-0.3,0.7-0.6,1.1-1.4,1.3c-1.8,0.5-3.5,1.2-5.2,2c-1.3,0.7-2.4,1.5-3,2.9c-1.9,4.6-2.6,9.3-1.3,14.2C8.1,51.9,8.7,52.4,10,52.4z
			 M40.3,51.4C40.4,43.7,34,38,27.1,37.9c-7.6,0-13.6,5.9-13.7,13.4c0,7.3,6,13.4,13.3,13.4C34.2,64.8,40.3,58.8,40.3,51.4z
			 M64.9,37.9c-7.4,0-13.4,6-13.4,13.4c0,7.3,6,13.4,13.3,13.4c7.5,0,13.5-6,13.6-13.4C78.4,44,72.3,37.9,64.9,37.9z"/>
		<path class="st1" d="M10,52.4c-1.3,0-2-0.6-2.3-1.8C6.4,45.8,7.1,41.1,9,36.5c0.6-1.4,1.7-2.2,3-2.9c1.7-0.8,3.4-1.6,5.2-2
			c0.7-0.2,1.1-0.6,1.4-1.3c2-5.3,5.2-9.8,9.8-13.1c5.6-4,12-6.1,18.8-5.6c12.2,0.9,21.3,6.6,26,18.3c0.4,1,0.9,1.5,1.9,1.8
			c1.7,0.4,3.2,1.1,4.8,1.9c1.6,0.8,2.6,1.9,3.2,3.5c1.7,4.4,2.2,8.9,1,13.6c-0.3,1.1-1.1,1.4-1.8,1.7c-0.7,0.3-0.4-0.5-0.4-0.8
			c0-3.4-0.9-6.5-2.7-9.3c-3.6-5.7-10.5-8.8-17-7.6C55.3,35.9,50,41,48.5,47.7c-0.6,2.7-0.5,5.4,0.2,8.2c-1.7,0-3.3,0-4.9,0
			c-0.9,0-0.5-0.6-0.4-0.9c0.6-2.7,0.5-5.4-0.2-8.1C41.4,40.1,35,35,28,34.5c-8.6-0.6-16.9,5.6-17.9,15.2C10,50.6,10,51.5,10,52.4z
			 M33.5,30.8c3.5,0,7,0,10.5,0c0.7,0,0.9-0.2,0.9-0.9c0-4.8,0-9.7,0-14.5c0-0.8-0.3-0.9-1-0.9c-4.9,0-9.4,1.3-13.5,4
			c-4.1,2.8-6.6,6.8-8.2,11.4c-0.3,0.8-0.1,1,0.7,1C26.5,30.8,30,30.8,33.5,30.8z M57.8,30.8c3.1,0,6.3,0,9.4,0c2.1,0,2.1,0,1.4-2
			c-3.3-9.4-11.9-14.4-21.2-14.4c-0.8,0-1,0.3-1,1c0,4.8,0,9.5,0,14.3c0,0.8,0.2,1.1,1,1.1C50.9,30.8,54.4,30.8,57.8,30.8z"/>
		<path class="st0" d="M33.5,30.8c-3.5,0-7,0-10.5,0c-0.8,0-1-0.2-0.7-1c1.6-4.6,4.1-8.6,8.2-11.4c4.1-2.8,8.6-4,13.5-4
			c0.7,0,1,0.2,1,0.9c0,4.8,0,9.7,0,14.5c0,0.7-0.2,0.9-0.9,0.9C40.5,30.8,37,30.8,33.5,30.8z M27.1,27.4c4.7,0,9.2,0,13.8,0
			c0.5,0,0.6-0.2,0.6-0.7c0-2.7,0-5.4,0-8c0-0.6-0.2-0.7-0.7-0.6C34.9,19.1,30.2,21.9,27.1,27.4z"/>
		<path class="st0" d="M57.8,30.8c-3.5,0-6.9,0-10.4,0c-0.9,0-1-0.3-1-1.1c0-4.8,0-9.5,0-14.3c0-0.8,0.2-1,1-1
			c9.4,0,17.9,5,21.2,14.4c0.7,2,0.7,2-1.4,2C64.1,30.8,61,30.8,57.8,30.8z M64.1,27.4C64,27.2,64,27.1,64,27
			c-3-5.2-7.7-7.9-13.5-8.9c-0.6-0.1-0.7,0.1-0.7,0.6c0,2.6,0,5.3,0,7.9c0,0.6,0.2,0.8,0.8,0.7C55.1,27.4,59.5,27.4,64.1,27.4z"/>
		<path class="st0" d="M26.9,59.6c-4.6,0-8.3-3.7-8.3-8.3c0-4.6,3.7-8.3,8.3-8.3c4.6,0,8.4,3.8,8.3,8.4C35.2,56,31.4,59.6,26.9,59.6
			z M22.1,46.6c0,1.3,1.1,2.4,2.4,2.4c1.3,0,2.4-1.1,2.4-2.4c0-1.3-1.1-2.4-2.4-2.4C23.1,44.2,22.1,45.3,22.1,46.6z"/>
		<path class="st0" d="M65,43c4.6,0,8.3,3.8,8.3,8.3c0,4.6-3.7,8.3-8.3,8.2c-4.6,0-8.3-3.7-8.3-8.3C56.6,46.8,60.4,43,65,43z
			 M69.7,46.6c0-1.3-1-2.4-2.4-2.4c-1.3,0-2.4,1.1-2.4,2.4c0,1.3,1.1,2.4,2.4,2.4C68.7,49,69.7,48,69.7,46.6z"/>
		<path class="st2" d="M22.1,46.6c0-1.3,1-2.4,2.3-2.4c1.3,0,2.4,1,2.4,2.4c0,1.3-1,2.4-2.4,2.4C23.2,49,22.1,48,22.1,46.6z"/>
		<path class="st2" d="M69.7,46.6c0,1.4-1,2.4-2.4,2.4c-1.3,0-2.4-1.1-2.4-2.4c0-1.3,1.1-2.4,2.4-2.4C68.7,44.2,69.7,45.3,69.7,46.6
			z"/>
	</g>
	<g>
		<g>
			<g>
				<path d="M107.9,54c-1.3,0-2.5-0.3-3.5-0.9c-1-0.6-1.9-1.5-2.5-2.5c-0.6-1.1-0.9-2.2-0.9-3.5V35.7c-1.6-0.1-3.1-0.7-4.2-1.9
					c-1.2-1.2-1.8-2.8-1.8-4.5l0-0.1c0-1.1,0.3-2.2,0.9-3.1c0.6-1,1.3-1.8,2.3-2.3c1-0.6,2-0.8,3.2-0.8h13.4c1.2,0,2.3,0.3,3.3,0.9
					c1,0.6,1.7,1.4,2.3,2.4c0.6,1,0.8,2.1,0.8,3.2l0,0.1c-0.1,1.7-0.7,3.3-2,4.4c-1.2,1.2-2.7,1.8-4.3,1.8v11.3c0,1.3-0.3,2.5-1,3.5
					c-0.6,1-1.4,1.8-2.4,2.4C110.4,53.7,109.2,54,107.9,54z M101.2,29.7C101.2,29.7,101.2,29.7,101.2,29.7l5.8,0V47
					c0,0.2,0,0.3,0.1,0.5c0.1,0.2,0.2,0.3,0.3,0.3c0.1,0.1,0.2,0.1,0.5,0.1c0.2,0,0.3,0,0.4-0.1c0.2-0.1,0.3-0.2,0.4-0.4
					c0-0.1,0.1-0.2,0.1-0.4V29.7h5.9c0.1,0,0.1,0,0.2-0.1c0.1-0.1,0.1-0.2,0.1-0.3c0-0.1,0-0.2-0.1-0.2c-0.1-0.1-0.1-0.1-0.2-0.2
					c0,0,0,0-0.1,0h-13.4c-0.1,0-0.1,0-0.2,0c0,0-0.1,0.1-0.1,0.1c0,0.1-0.1,0.1-0.1,0.3C101,29.4,101,29.5,101.2,29.7
					C101.2,29.6,101.2,29.7,101.2,29.7L101.2,29.7z"/>
			</g>
			<g>
				<path d="M125.8,54.1c-2.4,0-4.6-0.6-6.6-1.7c-2-1.1-3.6-2.6-4.8-4.6c-1.2-1.9-1.8-4.1-1.8-6.4c0-2.3,0.6-4.5,1.7-6.4
					c1.2-2,2.8-3.5,4.8-4.7c2-1.1,4.2-1.7,6.6-1.7c1.7,0,3.3,0.3,4.8,0.8c1.5,0.6,2.8,1.4,4,2.4c0.7,0.6,1.4,1.3,1.9,2.1
					c0.5,0.7,1,1.5,1.4,2.3c0.4,0.8,0.6,1.7,0.8,2.5c0.2,0.8,0.3,1.7,0.3,2.6c0,1.4-0.2,2.9-0.7,4.2c-0.5,1.4-1.2,2.7-2.2,3.9
					c-1,1.2-2.1,2.1-3.5,2.9C130.5,53.5,128.3,54.1,125.8,54.1z M125.8,34.7c-1.4,0-2.6,0.3-3.6,0.9c-1.1,0.6-1.9,1.4-2.5,2.5
					c-0.6,1-0.9,2.1-0.9,3.3c0,1.2,0.3,2.3,0.9,3.3c0.6,1,1.4,1.8,2.5,2.4c1.1,0.6,2.3,0.9,3.6,0.9c1.4,0,2.6-0.3,3.7-0.9
					c0.7-0.4,1.3-0.9,1.9-1.5c0.5-0.6,0.9-1.3,1.1-2c0.3-0.7,0.4-1.5,0.4-2.2c0-0.5,0-0.9-0.1-1.4c-0.1-0.4-0.2-0.9-0.4-1.3
					c-0.2-0.4-0.4-0.8-0.7-1.2c-0.3-0.4-0.6-0.7-1-1.1c-0.7-0.6-1.4-1-2.2-1.3C127.7,34.9,126.8,34.7,125.8,34.7z M125.8,47.7
					c-1.6,0-3.1-0.7-4.2-2c-1-1.1-1.5-2.6-1.5-4.3c0-1.2,0.3-2.3,0.9-3.3c1.1-1.8,2.8-2.8,4.8-2.8c2,0,3.7,1,4.8,2.8
					c0.6,0.9,0.9,2,0.9,3.3c0,0.3,0,0.6-0.1,1.1l0,0c-0.4,2.7-2,4.5-4.5,5C126.5,47.6,126.2,47.7,125.8,47.7z M125.4,41.9
					L125.4,41.9L125.4,41.9z"/>
			</g>
			<g>
				<path d="M141.7,62.4c-0.6,0-1.3-0.1-2.1-0.4c-1.4-0.4-2.5-1.2-3.4-2.3c-0.8-1.1-1.3-2.4-1.3-3.9c0-1,0.2-1.9,0.7-2.9l2-4.2
					l-4.7-10.6c-0.3-0.8-0.5-1.6-0.5-2.6c0-1.3,0.3-2.5,1-3.6c0.7-1.1,1.7-2,2.9-2.6c0.9-0.4,1.9-0.7,2.9-0.7c1,0,1.9,0.2,2.8,0.6
					c0.9,0.4,1.6,1,2.3,1.8c0.1,0.2,0.3,0.3,0.4,0.5c0.6-0.9,1.4-1.7,2.4-2.2c1-0.5,2-0.8,3.1-0.8c2,0,3.7,0.8,5.1,2.3
					c1.1,1.2,1.7,2.8,1.7,4.5c0,1-0.2,2-0.6,2.9l-8.4,19.3C146.2,61.8,143.2,62.4,141.7,62.4z M139.3,34.8c-0.1,0-0.2,0-0.4,0.1l0,0
					c-0.1,0.1-0.2,0.1-0.3,0.3c-0.1,0.1-0.1,0.3-0.1,0.5c0,0.1,0,0.1,0,0.1l5.8,13.1l-3.2,6.7c-0.1,0.2-0.1,0.2-0.1,0.3
					c0,0.1,0,0.2,0.1,0.2c0.1,0.1,0.2,0.2,0.4,0.2l0,0c0.1,0,0.2,0.1,0.3,0.1c0.3-0.1,0.6-0.7,0.7-1l8.4-19.4
					c0.1-0.2,0.1-0.4,0.1-0.4c0-0.2-0.1-0.3-0.1-0.4l0,0c-0.3-0.3-0.4-0.3-0.7-0.3c-0.1,0-0.2,0-0.3,0.1c0,0,0,0,0,0
					c-0.2,0.4-0.3,0.7-0.4,0.9l0,0.1l-4.5,13.6L140,35.8c-0.1-0.3-0.2-0.5-0.4-0.7c-0.1-0.2-0.2-0.2-0.3-0.2
					C139.3,34.8,139.3,34.8,139.3,34.8z"/>
			</g>
			<g>
				<path d="M167.6,53.9c-1,0-2-0.1-3-0.2c-2.9-0.5-5.5-1.6-7.7-3.4c-0.8-0.7-1.6-1.5-2.4-2.4l-0.1-0.1c-1.1-1.4-1.9-3-2.5-4.7
					c-0.6-1.7-0.9-3.4-0.9-5c0-1.7,0.3-3.4,0.9-5c0.6-1.6,1.5-3.2,2.6-4.6l0,0c2.6-3.2,6-5.1,10.3-5.7c2.7-0.4,5.2-0.3,7.3,0.3
					c1.3,0.4,2.4,0.9,3.4,1.5c1,0.7,1.8,1.5,2.3,2.4c0.6,1,0.9,2.1,0.9,3.2c0,1.5-0.5,2.8-1.3,3.9c-0.6,0.8-1.3,1.4-2,1.8
					c-0.8,0.4-1.7,0.6-2.8,0.6c-0.6,0-1.2,0-1.6-0.1l-0.1,0c-0.7-0.1-1.6-0.4-2.8-0.8c-0.1,0-0.4-0.1-0.9-0.1
					c-0.8,0-1.2,0.3-1.5,0.5c-0.1,0.1-0.6,0.5-0.8,1.6c0,0.1,0,0.3,0,0.5c0,0.2,0,0.4,0.1,0.6c0.1,0.5,0.3,1,0.5,1.3
					c0.2,0.2,0.3,0.3,0.4,0.4c0.2,0.1,0.6,0.2,1,0.2c0.5,0,1.4-0.1,2.9-0.6c0.1-0.1,0.3-0.1,0.4-0.1c0.1,0,0.3-0.1,0.4-0.1
					c0.6-0.1,1.2-0.2,1.9-0.2c1.9,0,3.6,0.7,4.8,2l0.1,0.1c1,1.2,1.6,2.6,1.6,4.1c0,1.3-0.4,2.6-1.2,3.8c-1,1.5-2.5,2.6-4.7,3.4
					C171.3,53.6,169.6,53.9,167.6,53.9z M159.3,44.1c0.5,0.6,1,1.1,1.5,1.5l0,0c1.3,1.1,2.9,1.8,4.7,2.1c0.7,0.1,1.4,0.2,2.1,0.2
					c1.2,0,2.2-0.2,3-0.5l0.1,0c1.1-0.4,1.7-0.8,1.8-1.1l0,0c0.2-0.2,0.2-0.4,0.2-0.4v0c0,0,0,0-0.1-0.1c0,0-0.1-0.1-0.3-0.1
					c-0.2,0-0.4,0-0.6,0.1l0,0c-1.8,0.6-3.5,0.9-4.9,0.9c-1.3,0-2.6-0.3-3.7-0.8c-1.2-0.6-2.1-1.4-2.8-2.6c-0.6-1-1.1-2.2-1.3-3.5
					l0,0c-0.1-0.6-0.1-1.1-0.1-1.6c0-0.6,0.1-1.1,0.2-1.7l0,0c0.5-2.1,1.4-3.8,2.9-5c1.5-1.2,3.3-1.8,5.3-1.8c1,0,1.9,0.1,2.6,0.3
					l0.2,0.1c1,0.4,1.6,0.5,1.8,0.6c0.1,0,0.3,0,0.7,0c0,0,0,0,0,0c0,0,0,0,0.1-0.1l0.1-0.1c0,0,0-0.1,0-0.2c0,0,0-0.1-0.1-0.2
					c-0.1-0.1-0.2-0.3-0.6-0.5c-0.3-0.2-0.9-0.5-1.5-0.6c-1.2-0.3-2.9-0.4-4.8-0.1c-2.7,0.4-4.8,1.5-6.4,3.5
					c-0.7,0.9-1.3,1.9-1.7,2.9c-0.4,1-0.6,2-0.6,2.9c0,1,0.2,2,0.6,3C158.1,42.2,158.6,43.2,159.3,44.1z M172.5,30.7L172.5,30.7
					L172.5,30.7z"/>
			</g>
			<g>
				<path d="M186,54c-0.8,0-1.6-0.1-2.5-0.3l0,0c-1.4-0.3-2.8-0.9-4.2-1.8c-1.3-0.9-2.4-2.1-3.4-3.5l-0.1-0.1
					c-0.6-1.1-1.1-2.2-1.4-3.4c-0.3-1.2-0.5-2.5-0.5-3.9l0-0.2c0.1-2,0.6-3.8,1.4-5.5c0.9-1.7,2-3.1,3.4-4.2
					c1.5-1.1,3.1-1.9,4.8-2.2c0.9-0.2,1.7-0.3,2.3-0.3c1.7,0,3.2,0.4,4.6,1.2l1.3-0.7c0.7-0.4,1.6-0.7,2.5-0.7
					c1.4,0,2.6,0.6,3.6,1.6c1.5,1.5,2.2,3.4,2.2,5.5v11.6c0,1.9-0.7,3.6-2,4.9c-1.3,1.3-2.9,2-4.8,2h-0.8l-2-1.1
					C189.2,53.6,187.7,54,186,54z M184.6,47.8c0.5,0.1,1,0.1,1.4,0.1c0.5,0,0.9-0.1,1.2-0.2v-0.3c0,0,0,0,0,0c-1.6,0-3.1-0.7-4.2-2
					l-0.1-0.1c-0.9-1.1-1.3-2.5-1.3-3.9v-0.3l0-0.2c0,0,0,0,0-0.1c0-0.1,0-0.2,0-0.4l0-0.2c0.2-1.4,0.8-2.5,1.7-3.4
					c1-1,2.4-1.6,3.8-1.6v-0.5c-0.3-0.1-0.7-0.2-1.2-0.2c0,0-0.3,0-1.1,0.2l0,0c-0.8,0.2-1.6,0.5-2.3,1.1c-0.7,0.6-1.3,1.3-1.8,2.2
					c-0.5,0.9-0.7,1.9-0.8,3c0,0.9,0.1,1.7,0.3,2.3c0.2,0.6,0.4,1.2,0.7,1.8c0.5,0.7,1.1,1.3,1.7,1.8
					C183.4,47.4,184,47.7,184.6,47.8z M190.8,46.1l3,1.7c0,0,0,0,0,0c0.1-0.1,0.2-0.2,0.2-0.6V35.6c0-0.3,0-0.5-0.1-0.7l-3.4,1.8
					c1.2,0.9,1.9,2.3,2.2,3.9l0,0.2v0.2c0,0.5,0,1,0,1.3l0,0c-0.1,0.7-0.3,1.5-0.7,2.1C191.7,45.2,191.3,45.7,190.8,46.1z
					 M187.1,41.5C187.1,41.5,187.1,41.5,187.1,41.5C187.1,41.5,187.1,41.5,187.1,41.5z"/>
			</g>
			<g>
				<path d="M202.9,53.9L202.9,53.9c-1.8,0-3.5-0.7-4.8-1.9c-1.3-1.3-2-3-2-4.8V35.7c0-1.9,0.7-3.5,2-4.8c1.3-1.3,3-2,4.8-2h0.9
					l2.2,1.5c1.4-1.1,2.8-1.4,3.9-1.4l0.1,0c0.6,0,1.2,0.1,1.8,0.2c1.2,0.3,2.2,0.9,3,1.8c0.9,0.9,1.4,2,1.7,3.2l0,0.2
					c0.1,0.5,0.1,0.9,0.1,1.2c0,1.6-0.6,3-1.7,4.2c-0.9,0.9-2.2,1.7-3.8,2.3c-0.1,0-0.2,0.1-0.3,0.1c-0.1,0-0.1,0.1-0.2,0.1l-0.1,0
					c-0.4,0.1-0.6,0.3-0.7,0.3c0,0.2,0,0.5,0,1.1v3.4c0,1.2-0.3,2.4-0.9,3.4c-0.6,1.1-1.4,1.9-2.4,2.6
					C205.3,53.6,204.1,53.9,202.9,53.9L202.9,53.9z M202.3,35.1c-0.2,0.2-0.2,0.3-0.2,0.6v11.5c0,0.2,0.1,0.3,0.2,0.5
					c0.2,0.2,0.3,0.2,0.6,0.2c0.1,0,0.2,0,0.3-0.1c0.1-0.1,0.2-0.2,0.3-0.3c0.1-0.1,0.1-0.3,0.1-0.5v-3.4c0-0.9,0.1-1.6,0.2-2.2
					c0.1-0.8,0.4-1.5,0.8-2.2c0.4-0.6,0.9-1.1,1.5-1.5L202.3,35.1z M209.7,42.3L209.7,42.3L209.7,42.3z M209.4,35.3v0.8
					c0.8-0.3,1-0.6,1.1-0.6c0,0,0,0,0,0c0,0,0,0,0,0c0,0,0,0,0,0c0,0,0-0.1,0-0.3c0,0,0,0-0.1-0.1c0,0-0.1-0.1-0.3-0.1l-0.2,0
					c0,0,0,0,0,0C209.8,35,209.5,35.1,209.4,35.3z"/>
			</g>
			<g>
				<path d="M227.1,53.7h-9.6c-2,0-3.8-0.7-5.1-2.1c-1.3-1.4-2-3.2-2-5.2V29.6c0-0.9,0.2-1.8,0.5-2.7c0.4-0.9,0.9-1.6,1.5-2.3
					c1.3-1.3,3-2,4.9-2c0.9,0,1.8,0.2,2.7,0.5c0.9,0.4,1.7,0.9,2.3,1.6c1.3,1.4,2,3.1,2,5v11.2h2.7c1.2,0,2.3,0.3,3.3,0.9
					c1,0.6,1.7,1.4,2.3,2.4c0.5,1,0.8,2.1,0.8,3.2l0,0c0,1.7-0.7,3.3-1.9,4.5C230.4,53.1,228.8,53.7,227.1,53.7z M217.3,28.6
					c-0.3,0-0.5,0.1-0.7,0.3c-0.1,0.1-0.1,0.2-0.2,0.3c-0.1,0.1-0.1,0.3-0.1,0.4v16.8c0,0.6,0.2,0.8,0.3,1c0.2,0.2,0.4,0.3,0.8,0.3
					h9.6c0.1,0,0.1,0,0.2-0.1c0.1-0.1,0.1-0.1,0.1-0.3c0-0.1,0-0.2-0.1-0.3c-0.1-0.1-0.1-0.1-0.1-0.1c0,0,0,0-0.1,0h-8.8V29.6
					c0-0.3-0.1-0.5-0.3-0.7l-0.1-0.1c0,0-0.1-0.1-0.1-0.1C217.6,28.6,217.5,28.6,217.3,28.6z"/>
			</g>
			<g>
				<path d="M239.6,54c-0.8,0-1.6-0.1-2.5-0.3l0,0c-1.4-0.3-2.8-0.9-4.2-1.8c-1.3-0.9-2.4-2.1-3.4-3.5l-0.1-0.1
					c-0.6-1.1-1.1-2.2-1.4-3.4c-0.3-1.2-0.5-2.5-0.5-3.9l0-0.2c0.1-2,0.6-3.8,1.4-5.5c0.9-1.7,2-3.1,3.4-4.2
					c1.5-1.1,3.1-1.9,4.8-2.2c0.9-0.2,1.7-0.3,2.3-0.3c1.7,0,3.2,0.4,4.6,1.2l1.3-0.7c0.7-0.4,1.6-0.7,2.5-0.7
					c1.4,0,2.6,0.6,3.6,1.6c1.5,1.5,2.2,3.4,2.2,5.5v11.6c0,1.9-0.7,3.6-2,4.9c-1.3,1.3-2.9,2-4.8,2h-0.8l-2-1.1
					C242.8,53.6,241.3,54,239.6,54z M238.2,47.8c0.5,0.1,1,0.1,1.4,0.1c0.5,0,0.9-0.1,1.2-0.2v-0.3c-1.7,0-3.2-0.7-4.3-2l-0.1-0.1
					c-0.9-1.1-1.3-2.5-1.3-3.9v-0.3l0-0.2c0,0,0,0,0-0.1c0-0.1,0-0.2,0-0.4l0-0.2c0.2-1.4,0.8-2.5,1.7-3.4c1-1,2.4-1.6,3.8-1.6v-0.5
					c-0.3-0.1-0.7-0.2-1.2-0.2c0,0-0.3,0-1.1,0.2l0,0c-0.8,0.2-1.6,0.5-2.3,1.1c-0.7,0.6-1.3,1.3-1.8,2.2c-0.5,0.9-0.7,1.9-0.8,3
					c0,0.9,0.1,1.7,0.3,2.3c0.2,0.6,0.4,1.2,0.7,1.8c0.5,0.7,1.1,1.3,1.7,1.8C236.9,47.4,237.5,47.7,238.2,47.8z M244.4,46.1l3,1.7
					c0,0,0,0,0,0c0.1-0.1,0.2-0.2,0.2-0.6V35.6c0-0.3,0-0.5-0.1-0.7l-3.4,1.8c1.2,0.9,1.9,2.3,2.2,3.9l0,0.2v0.2c0,0.5,0,1,0,1.3
					l0,0c-0.1,0.7-0.3,1.5-0.7,2.1C245.2,45.2,244.8,45.7,244.4,46.1z M240.6,41.5C240.6,41.5,240.7,41.5,240.6,41.5
					C240.7,41.5,240.6,41.5,240.6,41.5z"/>
			</g>
			<g>
				<path d="M267.9,54L267.9,54c-1.9,0-3.5-0.7-4.9-2c-0.4-0.4-0.7-0.7-1-1.1c-0.3,0.4-0.6,0.8-0.9,1.1c-1.3,1.3-2.9,2-4.8,2
					c-1.8,0-3.5-0.7-4.8-1.9l-0.1-0.1c-1.3-1.3-1.9-3-1.9-4.8V35.7c0-1.9,0.7-3.6,2-4.9c1.3-1.3,2.9-1.9,4.8-1.9h0.9l2,1.3
					c1.7-0.9,3.5-1.3,5.2-1.3c0.6,0,1.3,0.1,2.2,0.2l0.1,0c1.5,0.3,2.9,0.9,4.1,1.8c1.2,0.9,2.2,2,2.8,3.3c0.7,1.3,1,2.7,1,4.1v8.8
					c0,1.3-0.3,2.4-0.9,3.5c-0.6,1-1.4,1.8-2.4,2.4C270.3,53.7,269.1,54,267.9,54L267.9,54z M265.6,36.6c0.9,0.9,1.4,2.1,1.4,3.4
					v7.2c0,0.3,0.1,0.4,0.2,0.6c0.2,0.2,0.3,0.2,0.6,0.2c0.2,0,0.3,0,0.4-0.1c0.1-0.1,0.2-0.2,0.3-0.3c0-0.1,0.1-0.2,0.1-0.4v-8.8
					c0-0.5-0.1-1-0.3-1.4c-0.2-0.5-0.6-0.8-1-1.2c-0.5-0.4-1.1-0.6-1.7-0.8c-0.6-0.1-0.9-0.1-1-0.1c-0.5,0-1,0.1-1.6,0.3
					C263.9,35.3,264.9,35.8,265.6,36.6z M255.8,47.7c0.2,0.1,0.3,0.2,0.6,0.2c0.3,0,0.4-0.1,0.5-0.2c0.2-0.2,0.2-0.3,0.2-0.6V40
					c0-1.2,0.4-2.4,1.3-3.3l-2.6-1.6c0,0,0,0,0,0c-0.1,0.1-0.2,0.2-0.2,0.6v11.5C255.6,47.4,255.7,47.6,255.8,47.7z"/>
			</g>
			<g>
				<path d="M282.3,54c-0.6,0-1.3-0.1-2.2-0.2l-0.1,0c-2.4-0.5-4.5-1.6-6.3-3.5c-1.7-1.8-2.8-4-3.3-6.6l0-0.1
					c-0.1-0.8-0.2-1.6-0.2-2.4c0-1,0.1-2,0.3-2.8c0.4-1.8,1.1-3.3,2.1-4.7c1-1.4,2.2-2.5,3.7-3.4c2-1.2,4.2-1.7,6.5-1.5v-1.5
					c0-1.8,0.7-3.5,2-4.8c1.3-1.3,3-2,4.8-2l0,0c1.2,0,2.4,0.3,3.4,1c1,0.6,1.8,1.5,2.4,2.5c0.6,1,0.9,2.2,0.9,3.4v19.6
					c0,1.3-0.3,2.4-0.9,3.5c-0.6,1-1.4,1.9-2.5,2.5c-1,0.6-2.2,0.9-3.4,0.9h-0.8l-2-1.2C285.6,53.6,284,54,282.3,54z M281.2,47.8
					c0.6,0.1,0.9,0.1,1.1,0.1c0.5,0,0.9-0.1,1.2-0.2v-0.3c-1.6,0-3-0.6-4.1-1.8c-1-1.1-1.5-2.6-1.5-4.2c0-0.5,0-0.8,0.1-1.1
					c0.2-1.4,0.8-2.5,1.7-3.4c1-1,2.3-1.5,3.7-1.5c0.3,0,0.6,0,1.1,0.1l0,0c-0.1,0-0.2-0.1-0.2-0.1c-0.8-0.3-1.6-0.4-2.3-0.4
					c-0.9,0-1.8,0.2-2.6,0.7l0,0c-0.7,0.4-1.3,0.9-1.8,1.6c-0.5,0.7-0.9,1.6-1.1,2.6c-0.1,0.4-0.2,0.9-0.2,1.5c0,0.4,0,0.9,0.1,1.4
					c0.3,1.4,0.8,2.6,1.7,3.5C279.1,47,280,47.6,281.2,47.8z M287.3,45.9l3,1.8c0,0,0.1-0.1,0.1-0.1c0,0,0.1-0.2,0.1-0.5V27.5
					c0-0.2,0-0.3-0.1-0.4c-0.1-0.1-0.2-0.2-0.3-0.3c-0.1-0.1-0.2-0.1-0.3-0.1c-0.3,0-0.4,0.1-0.5,0.2c-0.2,0.2-0.2,0.3-0.2,0.6v10.2
					l-1.8-0.9c0.9,0.8,1.6,2,1.8,3.4l0.1,0.3v1.7l0,0.2C288.8,43.8,288.2,45,287.3,45.9C287.3,45.9,287.3,45.9,287.3,45.9z
					 M283,41.1L283,41.1L283,41.1z"/>
			</g>
		</g>
		<g>
			<g>
				<path class="st1" d="M97.9,29.3c0-0.6,0.2-1.2,0.5-1.7c0.3-0.5,0.7-0.9,1.2-1.2c0.5-0.3,1.1-0.4,1.7-0.4h13.4
					c0.6,0,1.2,0.2,1.7,0.5c0.5,0.3,0.9,0.7,1.2,1.3c0.3,0.5,0.5,1.1,0.5,1.8c0,0.9-0.4,1.7-1.1,2.4c-0.7,0.7-1.4,1-2.3,1h-2.9v14.3
					c0,0.7-0.2,1.4-0.5,2c-0.4,0.6-0.8,1.1-1.4,1.4c-0.6,0.4-1.2,0.5-2,0.5c-0.7,0-1.4-0.2-2-0.5c-0.6-0.4-1.1-0.8-1.4-1.4
					c-0.4-0.6-0.5-1.3-0.5-2V32.7h-2.7c-0.9,0-1.7-0.3-2.4-1C98.3,31,97.9,30.2,97.9,29.3z"/>
			</g>
			<g>
				<path class="st1" d="M125.8,51.1c-1.9,0-3.6-0.4-5.1-1.3c-1.5-0.9-2.8-2-3.6-3.5c-0.9-1.5-1.3-3.1-1.4-4.8
					c0-1.7,0.4-3.4,1.3-4.9c0.9-1.5,2.1-2.7,3.6-3.6c1.5-0.9,3.3-1.3,5.1-1.3c1.3,0,2.6,0.2,3.7,0.6c1.1,0.4,2.2,1,3.1,1.8
					c0.6,0.5,1,1,1.5,1.6c0.4,0.6,0.8,1.2,1,1.8c0.3,0.6,0.5,1.2,0.6,1.9c0.1,0.7,0.2,1.3,0.2,2c0,1.1-0.2,2.2-0.6,3.2
					c-0.4,1.1-0.9,2-1.7,2.9c-0.7,0.9-1.6,1.6-2.7,2.2C129.5,50.6,127.7,51.1,125.8,51.1z M123.2,41.4c0,0.9,0.3,1.7,0.8,2.3
					c0.5,0.6,1.1,0.9,1.9,0.9c0.1,0,0.2,0,0.5-0.1c1.2-0.2,1.9-1.1,2.1-2.4c0-0.4,0.1-0.6,0.1-0.8c0-0.7-0.2-1.2-0.5-1.7
					c-0.5-0.9-1.3-1.4-2.2-1.4c-0.9,0-1.7,0.5-2.2,1.4C123.3,40.2,123.2,40.8,123.2,41.4z"/>
			</g>
			<g>
				<path class="st1" d="M137.6,32.2c0.5-0.3,1.1-0.4,1.7-0.4c0.5,0,1,0.1,1.4,0.3c0.5,0.2,0.9,0.6,1.3,1c0.4,0.5,0.7,1,0.9,1.7
					l1.9,5.4l1.7-5.3c0.1-0.5,0.4-1,0.7-1.5c0.3-0.5,0.7-0.9,1.2-1.2c0.5-0.3,1.1-0.4,1.7-0.4c1.1,0,2.1,0.4,2.9,1.3
					c0.6,0.7,0.9,1.5,0.9,2.4c0,0.6-0.1,1.1-0.4,1.7l-8.4,19.3c-0.8,1.8-2,2.8-3.5,2.8c-0.3,0-0.7-0.1-1.2-0.2
					c-0.8-0.3-1.4-0.7-1.9-1.3c-0.5-0.6-0.7-1.3-0.7-2c0-0.5,0.1-1,0.4-1.6l2.6-5.4L135.7,37c-0.2-0.4-0.3-0.8-0.3-1.3
					c0-0.7,0.2-1.4,0.6-2C136.4,33,136.9,32.5,137.6,32.2z"/>
			</g>
			<g>
				<path class="st1" d="M156.9,46c-0.9-1.2-1.6-2.5-2.1-3.9c-0.5-1.4-0.7-2.7-0.7-4c0-1.3,0.2-2.6,0.7-4c0.5-1.3,1.2-2.6,2.2-3.8
					c2.1-2.6,4.9-4.1,8.3-4.6c0.9-0.1,1.8-0.2,2.7-0.2c1.2,0,2.4,0.1,3.3,0.4c1,0.3,1.8,0.6,2.4,1.1c0.6,0.5,1.1,0.9,1.4,1.5
					c0.3,0.5,0.5,1.1,0.5,1.7c0,0.8-0.2,1.5-0.7,2.1c-0.4,0.5-0.7,0.8-1.1,1c-0.4,0.2-0.8,0.3-1.4,0.3c-0.5,0-0.9,0-1.2-0.1
					c-0.6-0.1-1.4-0.3-2.4-0.7c-0.5-0.1-1.1-0.2-1.8-0.2c-1.3,0-2.4,0.4-3.4,1.1c-0.9,0.8-1.6,1.9-1.9,3.3c-0.1,0.3-0.1,0.7-0.1,1.1
					c0,0.4,0,0.7,0.1,1.1c0.2,0.9,0.5,1.7,0.9,2.4c0.4,0.7,1,1.1,1.6,1.5c0.7,0.3,1.4,0.5,2.3,0.5c1.1,0,2.4-0.3,3.9-0.8
					c0,0,0.1,0,0.2-0.1c0.1,0,0.1,0,0.2-0.1c0.4-0.1,0.8-0.1,1.3-0.1c1.1,0,2,0.4,2.6,1.1c0.6,0.7,0.9,1.4,0.9,2.2
					c0,0.7-0.2,1.4-0.7,2.1c-0.6,0.9-1.7,1.7-3.3,2.3c-1.1,0.5-2.5,0.7-4.1,0.7c-0.8,0-1.7-0.1-2.6-0.2c-2.4-0.4-4.4-1.3-6.2-2.8
					C158.2,47.4,157.6,46.8,156.9,46z"/>
			</g>
			<g>
				<path class="st1" d="M184.3,31.9c0.7-0.1,1.3-0.2,1.7-0.2c1.7,0,3.1,0.6,4.2,1.7v0.1l3.2-1.7c0.3-0.2,0.6-0.3,1-0.3
					c0.5,0,1,0.2,1.4,0.6c0.9,0.9,1.4,2.1,1.4,3.5v11.6c0,1.1-0.4,2-1.1,2.8c-0.7,0.7-1.6,1.1-2.7,1.1l-3.1-1.8v0.2
					c-1,1.1-2.4,1.6-4.2,1.6c-0.6,0-1.2-0.1-2-0.2c-1-0.2-2-0.6-3-1.3c-1-0.7-1.8-1.6-2.6-2.6c-0.5-0.8-0.9-1.7-1.1-2.6
					c-0.2-0.9-0.4-2-0.4-3.2c0.1-1.5,0.4-3,1.1-4.3c0.7-1.3,1.5-2.4,2.6-3.2C181.8,32.7,183,32.2,184.3,31.9z M184.6,41.5
					c0,0.8,0.2,1.5,0.7,2.1c0.5,0.6,1.1,0.9,1.9,0.9c0.4,0,0.9-0.1,1.3-0.4c0.4-0.2,0.7-0.6,1-1c0.2-0.3,0.3-0.7,0.4-1
					c0-0.3,0-0.6,0-1.1c-0.2-1.1-0.7-1.9-1.6-2.3c-0.4-0.2-0.7-0.3-1.1-0.3c-0.6,0-1.1,0.2-1.6,0.7c-0.4,0.4-0.7,1-0.9,1.8
					c0,0.1,0,0.2,0,0.3C184.6,41.3,184.6,41.4,184.6,41.5z"/>
			</g>
			<g>
				<path class="st1" d="M202.8,50.9c-1,0-1.9-0.4-2.7-1.1c-0.7-0.7-1.1-1.6-1.1-2.6V35.7c0-1.1,0.4-2,1.1-2.7
					c0.7-0.7,1.6-1.1,2.7-1.1l3.5,2.4v-0.2l0.2-0.3l0.4-0.4c0.9-0.9,1.9-1.4,2.9-1.5c0.4,0,0.7,0,1,0.1c0.7,0.2,1.2,0.5,1.7,1
					c0.5,0.5,0.8,1,0.9,1.7c0,0.4,0.1,0.7,0.1,0.8c0,0.8-0.3,1.5-0.8,2.1c-0.6,0.6-1.4,1.1-2.7,1.5c-0.1,0-0.2,0.1-0.3,0.1
					c-0.1,0-0.2,0.1-0.4,0.2c-0.6,0.2-1,0.5-1.4,0.7c-0.4,0.2-0.6,0.5-0.8,0.8c-0.2,0.3-0.3,0.6-0.4,1.1c-0.1,0.4-0.1,1-0.1,1.7v3.4
					c0,0.7-0.2,1.4-0.5,2c-0.3,0.6-0.8,1.1-1.4,1.4C204.1,50.7,203.5,50.9,202.8,50.9z"/>
			</g>
			<g>
				<path class="st1" d="M217.5,50.7c-1.2,0-2.2-0.4-3-1.2c-0.8-0.8-1.2-1.8-1.2-3.1V29.6c0-0.5,0.1-1,0.3-1.5
					c0.2-0.5,0.5-0.9,0.9-1.3c0.8-0.8,1.7-1.2,2.8-1.2c0.5,0,1,0.1,1.5,0.3c0.5,0.2,0.9,0.5,1.2,0.9c0.8,0.8,1.2,1.8,1.2,2.9v14.2
					h5.8c0.6,0,1.2,0.2,1.7,0.5c0.5,0.3,0.9,0.7,1.2,1.3c0.3,0.5,0.4,1.1,0.4,1.8c0,0.9-0.3,1.7-1,2.4c-0.7,0.7-1.4,1-2.3,1H217.5z"
					/>
			</g>
			<g>
				<path class="st1" d="M237.8,31.9c0.7-0.1,1.3-0.2,1.7-0.2c1.7,0,3.1,0.6,4.2,1.7v0.1l3.2-1.7c0.3-0.2,0.6-0.3,1-0.3
					c0.5,0,1,0.2,1.4,0.6c0.9,0.9,1.4,2.1,1.4,3.5v11.6c0,1.1-0.4,2-1.1,2.8c-0.7,0.7-1.6,1.1-2.7,1.1l-3.1-1.8v0.2
					c-1,1.1-2.4,1.6-4.2,1.6c-0.6,0-1.2-0.1-2-0.2c-1-0.2-2-0.6-3-1.3c-1-0.7-1.8-1.6-2.6-2.6c-0.5-0.8-0.9-1.7-1.1-2.6
					c-0.2-0.9-0.4-2-0.4-3.2c0.1-1.5,0.4-3,1.1-4.3c0.7-1.3,1.5-2.4,2.6-3.2C235.4,32.7,236.5,32.2,237.8,31.9z M238.1,41.5
					c0,0.8,0.2,1.5,0.7,2.1c0.5,0.6,1.1,0.9,1.9,0.9c0.4,0,0.9-0.1,1.3-0.4c0.4-0.2,0.7-0.6,1-1c0.2-0.3,0.3-0.7,0.4-1
					c0-0.3,0-0.6,0-1.1c-0.2-1.1-0.7-1.9-1.6-2.3c-0.4-0.2-0.7-0.3-1.1-0.3c-0.6,0-1.1,0.2-1.6,0.7c-0.4,0.4-0.7,1-0.9,1.8
					c0,0.1,0,0.2,0,0.3C238.2,41.3,238.1,41.4,238.1,41.5z"/>
			</g>
			<g>
				<path class="st1" d="M253.7,49.9c-0.7-0.8-1.1-1.7-1.1-2.7V35.7c0-1.1,0.4-2,1.1-2.7c0.7-0.7,1.6-1.1,2.7-1.1l3,1.9v-0.1
					c0.1-0.1,0.2-0.2,0.5-0.4c1.6-1,3.1-1.4,4.6-1.4c0.4,0,1,0.1,1.6,0.2c1.1,0.2,2.1,0.7,2.9,1.3c0.8,0.6,1.5,1.4,1.9,2.3
					c0.4,0.9,0.7,1.8,0.7,2.8v8.8c0,0.7-0.2,1.4-0.5,1.9c-0.3,0.6-0.8,1-1.4,1.4c-0.6,0.3-1.2,0.5-1.9,0.5c-1.1,0-2-0.4-2.7-1.1
					c-0.8-0.7-1.1-1.6-1.1-2.7V40c0-0.5-0.2-1-0.6-1.3c-0.4-0.4-0.8-0.6-1.3-0.6s-1,0.2-1.3,0.6c-0.4,0.4-0.6,0.9-0.6,1.4v7.1
					c0,1.1-0.4,2-1.1,2.7c-0.7,0.7-1.6,1.1-2.7,1.1C255.4,51,254.5,50.6,253.7,49.9z"/>
			</g>
			<g>
				<path class="st1" d="M285.3,32.5c0.2,0.1,0.4,0.2,0.6,0.3v-5.3c0-1,0.4-1.9,1.1-2.7c0.7-0.7,1.6-1.1,2.7-1.1
					c0.7,0,1.3,0.2,1.9,0.5c0.6,0.4,1,0.8,1.4,1.4c0.3,0.6,0.5,1.2,0.5,1.9v19.6c0,0.7-0.2,1.4-0.5,2c-0.3,0.6-0.8,1-1.3,1.3
					c-0.6,0.3-1.2,0.5-1.9,0.5l-3.1-1.9v0.1c-1.1,1.2-2.5,1.8-4.3,1.8c-0.5,0-1-0.1-1.7-0.2c-1.8-0.3-3.3-1.2-4.6-2.6
					c-1.3-1.4-2.1-3.1-2.5-5c-0.1-0.7-0.2-1.3-0.2-1.9c0-0.8,0.1-1.5,0.2-2.2c0.3-1.4,0.9-2.6,1.6-3.6c0.7-1,1.7-1.9,2.7-2.5
					c1.3-0.8,2.7-1.2,4.1-1.2C283.1,31.9,284.2,32.1,285.3,32.5z M280.9,41.3c0,0.9,0.3,1.7,0.8,2.2c0.5,0.6,1.1,0.9,1.9,0.9
					c0.7,0,1.2-0.3,1.6-0.7c0.4-0.4,0.7-1.1,0.9-1.9v-1.1c-0.3-1.3-0.9-2.1-2-2.4c-0.3,0-0.5-0.1-0.6-0.1c-0.6,0-1.2,0.2-1.6,0.7
					c-0.5,0.4-0.8,1.1-0.9,1.8C280.9,40.9,280.9,41.1,280.9,41.3z"/>
			</g>
		</g>
	</g>
</g>
</svg>
